Coordinates
version=1
nRows=16
nColumns=36
inDegrees=yes

Units are S.I. units (second, meters, Newtons, ...)
If the header above contains a line with 'inDegrees', this indicates whether rotational values are in degrees (yes) or radians (no).

endheader
time	pelvis_tilt	pelvis_list	pelvis_rotation	pelvis_tx	pelvis_ty	pelvis_tz	hip_flexion_r	hip_adduction_r	hip_rotation_r	knee_angle_r	knee_angle_r_beta	ankle_angle_r	subtalar_angle_r	mtp_angle_r	hip_flexion_l	hip_adduction_l	hip_rotation_l	knee_angle_l	knee_angle_l_beta	ankle_angle_l	subtalar_angle_l	mtp_angle_l	lumbar_extension	lumbar_bending	lumbar_rotation	arm_flex_r	arm_add_r	arm_rot_r	elbow_flex_r	pro_sup_r	arm_flex_l	arm_add_l	arm_rot_l	elbow_flex_l	pro_sup_l
      4.43000000	    -39.46792715	      1.77680440	      0.46991964	     -0.41548649	      0.66637669	     -0.60112102	    103.98561072	     -6.52939380	      2.27645314	     81.40788667	      1.42083566	     23.81803449	      2.98858581	     -7.49999987	    103.29483289	    -10.05919987	     -5.20260632	     80.07532120	      1.39757800	     22.14419380	      6.01604955	     -7.49999987	    -33.86585532	      1.25190028	     -2.46947801	      9.19692185	     -9.48274485	      1.85793319	    139.00064540	    110.26193893	      0.83412217	     -9.38126099	    -20.54932349	    140.56979234	    107.78281452
      4.44000000	    -39.91805128	      1.77616385	      0.45768277	     -0.41075968	      0.67292114	     -0.60107613	    103.20851283	     -6.33583910	      2.32062419	     80.27370456	      1.40104045	     23.41460348	      2.18166451	     -7.49999987	    102.56343443	     -9.76473107	     -5.14281589	     78.96323009	      1.37816835	     21.71720066	      5.13694848	     -7.49999987	    -32.97247472	      1.14120477	     -1.88998280	      7.92456943	     -9.06351703	      1.31449210	    138.86037713	    110.68165554	      1.20585209	     -8.81970636	    -19.21836083	    139.35950588	    108.44173684
      4.45000000	    -40.26983120	      1.86975620	      0.63241947	     -0.40605072	      0.67936782	     -0.60168254	    102.43479552	     -6.44992045	      2.47907149	     79.26863183	      1.38349862	     23.47998793	      2.20631980	     -7.49999987	    101.68041746	     -9.19859438	     -5.13710276	     77.80601926	      1.35797121	     21.76300787	      4.88723644	     -7.49999987	    -32.07724227	      1.01801531	     -2.04244692	      7.10287919	     -8.61316273	      1.43089628	    138.31782984	    110.78203101	      1.03821417	     -8.25561632	    -18.61688436	    138.68505069	    108.63066061
      4.46000000	    -40.58494593	      1.95621096	      0.73199943	     -0.40133243	      0.68593000	     -0.60209501	    101.59306802	     -6.45241324	      2.64016374	     78.19143825	      1.36469804	     23.43211420	      2.15673226	     -7.49999987	    100.76705513	     -8.69239514	     -5.06836530	     76.61420435	      1.33717012	     21.43540596	      4.11680985	     -7.49999987	    -31.17132571	      0.87540085	     -1.98773391	      6.09683446	     -8.17779413	      1.28819892	    138.01113407	    111.01767170	      1.04912614	     -7.78456366	    -17.65562575	    137.91522707	    109.10778900
      4.47000000	    -40.72336447	      1.89205119	      0.61145393	     -0.39636697	      0.69297419	     -0.60169175	    100.43170199	     -6.14911358	      2.63767890	     76.95413540	      1.34310304	     23.45658885	      2.08635371	     -7.49999987	     99.73038938	     -8.53665436	     -4.84028674	     75.50222801	      1.31776247	     21.43404116	      4.07937355	     -7.49999987	    -30.37852428	      0.81581739	     -2.04440234	      5.55811294	     -7.66493919	      1.64108888	    137.42360891	    111.03309799	      0.75227060	     -7.37704512	    -17.35082024	    137.38826196	    109.13766669
      4.48000000	    -40.75806102	      1.70568490	      0.39833990	     -0.39124785	      0.70014450	     -0.60103129	     99.11307654	     -5.67082353	      2.56392713	     75.67487209	      1.32077568	     23.26486629	      1.51930448	     -7.49999987	     98.65151179	     -8.53565088	     -4.57670351	     74.45522585	      1.29948884	     21.24688635	      3.71985961	     -7.49999987	    -29.51105703	      0.85283300	     -1.92225951	      5.01889514	     -7.28421015	      2.09170111	    136.52889232	    111.10077032	      0.47867412	     -7.02992598	    -16.89895130	    136.50397174	    109.24163885
      4.49000000	    -40.82743052	      1.60628841	      0.31510592	     -0.38633413	      0.70701258	     -0.60082971	     97.91721572	     -5.38783392	      2.59093368	     74.45232714	      1.29943824	     23.18196443	      1.35441222	     -7.49999987	     97.57148959	     -8.33006737	     -4.37893689	     73.31999626	      1.27967534	     21.18464194	      3.51178953	     -7.49999987	    -28.58524376	      0.82603077	     -1.94675009	      4.39913581	     -6.93304046	      2.38022361	    135.98943422	    111.11487255	      0.17060603	     -6.67877596	    -16.50416326	    136.04856434	    109.26677341
      4.50000000	    -40.84899726	      1.51239143	      0.30548996	     -0.38141317	      0.71383068	     -0.60084257	     96.71533028	     -5.20084172	      2.59386107	     73.27728172	      1.27892983	     22.89095811	      0.77144290	     -7.49999987	     96.46705223	     -8.00195424	     -4.12406586	     72.18347468	      1.25983930	     20.82562967	      2.80521917	     -7.49999987	    -27.55865835	      0.82654378	     -1.94865771	      3.67738440	     -6.68412449	      2.67130046	    135.29557014	    111.16037743	     -0.09049419	     -6.44621495	    -15.73935968	    135.28907839	    109.32810781
      4.51000000	    -40.82830557	      1.42502092	      0.28349400	     -0.37648380	      0.72087638	     -0.60090356	     95.41881197	     -5.00303827	      2.63970212	     71.98679770	      1.25640664	     22.67512242	      0.40029345	     -7.49999987	     95.29113206	     -7.66543501	     -3.78650978	     70.98344348	      1.23889480	     20.53832054	      2.37534628	     -7.49999987	    -26.58604287	      0.85746082	     -1.98789574	      3.05941149	     -6.44419861	      2.91836226	    134.79066454	    111.19935813	     -0.40404589	     -6.21176447	    -15.16289112	    134.80124732	    109.37082759
      4.52000000	    -40.70154318	      1.32645132	      0.27281934	     -0.37146704	      0.72816635	     -0.60112362	     94.00479222	     -4.83964895	      2.67809528	     70.66864373	      1.23340051	     22.50573557	      0.14400920	     -7.49999987	     93.99689234	     -7.29727494	     -3.43500103	     69.77376043	      1.21778185	     20.32879089	      2.05848529	     -7.49999987	    -25.68348211	      0.94225626	     -2.05217919	      2.56739706	     -6.28533464	      3.17144072	    134.31996382	    111.23310335	     -0.65721703	     -5.99631163	    -14.67596195	    134.33455532	    109.39172004
      4.53000000	    -40.37473666	      1.19097356	      0.32807563	     -0.36619276	      0.73578848	     -0.60145107	     92.35937657	     -4.77165479	      2.63734787	     69.35911461	      1.21054492	     22.29070045	     -0.21150828	     -7.49999987	     92.48334751	     -6.90422709	     -3.12089011	     68.53422709	      1.19614791	     20.04731534	      1.58573052	     -7.49999987	    -24.91931153	      1.08486883	     -2.13651246	      2.09853887	     -6.22684417	      3.47751619	    133.79499966	    111.28783853	     -0.81205741	     -5.83161750	    -14.07792322	    133.72453423	    109.41615084
      4.54000000	    -39.96580810	      1.04936927	      0.37304605	     -0.36072386	      0.74361880	     -0.60177507	     90.60234740	     -4.67753237	      2.56097269	     68.00755680	      1.18695578	     21.77823789	     -1.12196573	     -7.49999987	     90.87012650	     -6.52804314	     -2.82601270	     67.27213046	      1.17412017	     19.32489980	      0.38123071	     -7.49999987	    -24.23744866	      1.25571851	     -1.99412477	      1.46595262	     -6.24986360	      3.65981651	    133.45787376	    111.48886024	     -0.84428855	     -5.74889384	    -13.09927812	    132.97880123	    109.53644318
      4.55000000	    -39.53324588	      0.96445550	      0.42456101	     -0.35518616	      0.75156547	     -0.60206075	     88.80571165	     -4.59155795	      2.60187029	     66.61257403	      1.16260874	     21.61441106	     -1.27416404	     -7.49999987	     89.16095911	     -6.16399319	     -2.52227479	     65.93540031	      1.15078983	     19.15232018	      0.25080067	     -7.49999987	    -23.50245043	      1.35610634	     -2.09803450	      1.05364760	     -6.23730504	      3.92018219	    132.85249283	    111.53538077	     -1.04657077	     -5.65865415	    -12.50309917	    132.36574104	    109.55510432
      4.56000000	    -39.05016738	      0.88048914	      0.43909900	     -0.34960772	      0.75957881	     -0.60217312	     86.94321472	     -4.41684113	      2.65099120	     65.15529779	      1.13717447	     21.05085346	     -2.16525127	     -7.49999987	     87.39122077	     -5.83153095	     -2.19941602	     64.55602691	      1.12671522	     18.58042150	     -0.53659531	     -7.49999987	    -22.78942885	      1.45543323	     -1.90245507	      0.41052973	     -6.29669316	      3.95225540	    132.43095700	    111.79431196	     -1.02845469	     -5.67076350	    -11.46389912	    131.56294052	    109.65643509
      4.57000000	    -38.49841977	      0.88019490	      0.49998343	     -0.34396798	      0.76756666	     -0.60228420	     85.04596678	     -4.36784506	      2.69354900	     63.74145450	      1.11249825	     20.92251544	     -2.28605691	     -7.49999987	     85.51078746	     -5.46413970	     -1.96921000	     63.14226128	      1.10204036	     18.41202298	     -0.65784635	     -7.49999987	    -22.03665000	      1.41553492	     -2.09317437	      0.03448819	     -6.33166162	      4.20445573	    131.66188204	    111.83294822	     -1.16354215	     -5.72062431	    -10.83830530	    130.93378886	    109.65491719
      4.58000000	    -38.06612191	      0.89364952	      0.56423005	     -0.33839553	      0.77525234	     -0.60251690	     83.27275634	     -4.36024336	      2.74196482	     62.28956107	      1.08715793	     20.80481943	     -2.35996130	     -7.49999987	     83.75456593	     -5.11621643	     -1.81370430	     61.69938237	      1.07685737	     18.29087111	     -0.82542625	     -7.49999987	    -21.12614625	      1.37419859	     -2.26349791	     -0.38955179	     -6.37524379	      4.38475389	    131.06043219	    111.83872540	     -1.38467307	     -5.73248295	    -10.31136111	    130.51727281	    109.65018790
